<svg xmlns="http://www.w3.org/2000/svg" width="167.438" height="156.502" viewBox="0 0 167.438 156.502"><g transform="translate(0 0)"><g transform="translate(32.353)"><path d="M246.559,46.971q43.536-6.216,87.056-12.415a5.872,5.872,0,0,1,4.493,1.331,5.793,5.793,0,0,1,2.047,4.21c-.017,6.024,0,12.049,0,18.057a173.823,173.823,0,0,0-39.392,43.386c-1.548-1.448-3.1-2.929-4.527-4.493a15.039,15.039,0,0,0,5.309-7.522,10.393,10.393,0,0,0,.266-5.342,22.587,22.587,0,0,0-2.33-5.775c-1.032-1.914-1.914-3.961-3.495-5.509a6.9,6.9,0,0,0-4.793-2.247A6.543,6.543,0,0,0,286,72.867a7.042,7.042,0,0,0-1.414,4.51,12.062,12.062,0,0,0,1.048,4.71,64.154,64.154,0,0,0,5.009,10.035c-5.026,2.829-10.768,3.961-16.409,4.743A94.508,94.508,0,0,1,241.5,95.533V52.547A5.961,5.961,0,0,1,246.559,46.971Zm43.686,13.4a14.808,14.808,0,0,0-1.98,2.779.791.791,0,0,1-1.182.316c-.932-.566-1.831-1.165-2.763-1.731a32.592,32.592,0,0,0-3.279,5.159c1.481.932,2.962,1.881,4.46,2.813a17.974,17.974,0,0,0,2.08-2.929.756.756,0,0,1,1.048-.316c.965.549,1.931,1.1,2.912,1.648a10.483,10.483,0,0,0,1.3-1.764c.7-1.1,1.381-2.23,2-3.378C293.307,62.066,291.793,61.2,290.245,60.368Z" transform="translate(-241.5 -34.508)" fill="#2ba7df"/></g><path d="M873.148,77.084a2.748,2.748,0,0,1,3.628,2.53q-.05,40.84-.1,81.7a3.577,3.577,0,0,1-.916,3,2.794,2.794,0,0,1-3.861,0,3.444,3.444,0,0,0,2.529-3.179V79.6A3.091,3.091,0,0,0,873.148,77.084Z" transform="translate(-734.635 -69.862)" fill="#2ba7df"/><path d="M303.8,273.44a172.648,172.648,0,0,1,36.18-40.64q0,28.658.017,57.3a8.089,8.089,0,0,1-2.3,5.924,4.954,4.954,0,0,1-3.262,1.581c-12.515.017-25.03-.017-37.545.017q-6.915,6.715-13.863,13.4c-2.064-4.46-4.111-8.937-6.174-13.4H248.065a11.659,11.659,0,0,1-2.014-.083,5.921,5.921,0,0,1-4.161-3.262,6.33,6.33,0,0,1-.566-3.179c.017-7.872,0-15.76,0-23.649a95.069,95.069,0,0,0,36.33,1.6,46.265,46.265,0,0,0,16.942-5.725C297.459,266.883,300.7,270.112,303.8,273.44Z" transform="translate(-208.989 -199.8)" fill="#2ba7df"/><path d="M524.928,296.426a6.7,6.7,0,0,1,5.791-.566,2.72,2.72,0,0,1,1.648,1.181,3.622,3.622,0,0,1,.15,2.513,13.947,13.947,0,0,1-6.424,8.8q-1.3-1.747-2.5-3.545a6.907,6.907,0,0,1-.915-4.26A5.312,5.312,0,0,1,524.928,296.426Z" transform="translate(-443.514 -252.026)" fill="#2ba7df"/><path d="M223,714.2h4.394v12.3c1.148-2.08,2.58-3.961,3.861-5.941h5.292c-1.681,1.9-3.345,3.795-5.026,5.692,1.93,2.779,3.811,5.575,5.742,8.338-1.8.05-3.595,0-5.392.016-1.132-1.914-2.247-3.827-3.378-5.758l-1.1,1.348v4.394H223Z" transform="translate(-193.726 -601.084)" fill="#2ba7df"/><g transform="translate(100.387 113.116)"><path d="M660.576,714.2h3.561v17.275c.016,1.048.05,2.08.1,3.128h-3.179c-.05-.732-.067-1.464-.166-2.2a5.442,5.442,0,0,1-7.239,1.847,6.636,6.636,0,0,1-3.212-4.926,9.04,9.04,0,0,1,1.165-6.357,5.882,5.882,0,0,1,4.477-2.68,4.829,4.829,0,0,1,4.493,1.831Zm-3.911,8.9a3.222,3.222,0,0,0-1.98,1.465,6.192,6.192,0,0,0-.716,3.927,4.12,4.12,0,0,0,1.6,3,3.192,3.192,0,0,0,4.011-.349,3.879,3.879,0,0,0,1-3.012c-.05-1.2.2-2.5-.466-3.578A3.124,3.124,0,0,0,656.665,723.1Z" transform="translate(-650.309 -714.2)" fill="#2ba7df"/></g><path d="M315.675,715.7a2.436,2.436,0,0,1,3.1,1.065,2.174,2.174,0,0,1-1.048,2.946,2.51,2.51,0,0,1-2.879-.532A2.235,2.235,0,0,1,315.675,715.7Z" transform="translate(-269.859 -602.187)" fill="#2ba7df"/><path d="M47.1,720.4H61.978v3.678H56.686v15.694h-4.41V724.078H47.1Z" transform="translate(-47.1 -606.252)" fill="#2ba7df"/><g transform="translate(56.201 114.148)"><path d="M391.008,720.4c1.515.017,3.029,0,4.543.017,2.08,6.457,4.194,12.9,6.274,19.355h-3.811l-1.747-5.492h-6.124c-.549,1.831-1.115,3.661-1.664,5.492H384.8Q387.921,730.086,391.008,720.4Zm2.114,2.879c-.616,2.813-1.531,5.558-2.4,8.3h4.926c-.765-2.513-1.664-4.976-2.263-7.522A3.341,3.341,0,0,0,393.121,723.279Z" transform="translate(-384.8 -720.4)" fill="#2ba7df"/></g><g transform="translate(13.728 119.162)"><path d="M130.573,751.753a12.126,12.126,0,0,1,6.058-1.215,5.889,5.889,0,0,1,4.36,1.88,7.09,7.09,0,0,1,1.215,4.843,64.5,64.5,0,0,0,.216,7.605c-1.315.033-2.63,0-3.944.017-.083-.482-.183-.965-.266-1.448a5.285,5.285,0,0,1-7.306.566,4.617,4.617,0,0,1,.366-6.79c1.847-1.448,4.31-1.7,6.574-1.714a1.715,1.715,0,0,0-1.265-1.8,7.423,7.423,0,0,0-5.209.865C131.139,753.617,130.839,752.685,130.573,751.753Zm4.011,7.256a1.8,1.8,0,0,0,0,2.813,2.321,2.321,0,0,0,3.079-.865c.5-.816.233-1.814.3-2.713A5.529,5.529,0,0,0,134.584,759.01Z" transform="translate(-129.59 -750.526)" fill="#2ba7df"/></g><path d="M495.019,751.711a9.37,9.37,0,0,1,7.539-.316c-.183.9-.416,1.781-.632,2.663a5.92,5.92,0,0,0-4.46-.2,4.082,4.082,0,0,0-2.363,2.912,5.412,5.412,0,0,0,.616,4.028,3.932,3.932,0,0,0,2.679,1.7,7.112,7.112,0,0,0,3.628-.466c.167.882.333,1.764.483,2.646a11.024,11.024,0,0,1-5.442.6,6.61,6.61,0,0,1-4.427-2.563,7.982,7.982,0,0,1-1.182-6.074A7.039,7.039,0,0,1,495.019,751.711Z" transform="translate(-417.383 -631.555)" fill="#2ba7df"/><g transform="translate(86.248 119.209)"><path d="M566.356,752.024a10.594,10.594,0,0,1,6.457-1.115,4.758,4.758,0,0,1,3.711,2.513c.865,1.664.666,3.611.682,5.409a49.607,49.607,0,0,0,.2,6.291h-3.212c-.083-.533-.15-1.065-.233-1.6a5.289,5.289,0,0,1-7.223.866,4.464,4.464,0,0,1,.25-6.69c1.88-1.464,4.377-1.7,6.69-1.7a2.831,2.831,0,0,0-.466-1.748,2.75,2.75,0,0,0-2.1-.932,7.4,7.4,0,0,0-4.061,1.032C566.805,753.571,566.572,752.789,566.356,752.024Zm3.911,6.807a2.208,2.208,0,0,0-1.331,1.514,2.069,2.069,0,0,0,.866,2.313,2.855,2.855,0,0,0,3.728-1.415,8.728,8.728,0,0,0,.2-2.946A7.919,7.919,0,0,0,570.267,758.83Z" transform="translate(-565.349 -750.811)" fill="#2ba7df"/></g><g transform="translate(116.552 119.19)"><path d="M750.36,751.894a6.95,6.95,0,0,1,5.425-1.048,5.2,5.2,0,0,1,3.262,2.164,8.623,8.623,0,0,1,1.148,6.008h-9.37a3.5,3.5,0,0,0,2.347,3.262,9.421,9.421,0,0,0,5.858-.3c.166.815.333,1.631.516,2.43a13.214,13.214,0,0,1-5.842.832,6.75,6.75,0,0,1-4.826-2.4,7.8,7.8,0,0,1-1.365-5.808A7.368,7.368,0,0,1,750.36,751.894Zm1.781,1.947a4.269,4.269,0,0,0-1.3,2.7c2.047,0,4.077-.017,6.124,0a3.388,3.388,0,0,0-1.282-2.946A3,3,0,0,0,752.141,753.841Z" transform="translate(-747.437 -750.695)" fill="#2ba7df"/></g><path d="M843.509,751.09a4.8,4.8,0,0,1,4.66.449,4.366,4.366,0,0,1,1.315,1.731,5.769,5.769,0,0,1,3-2.363,4.747,4.747,0,0,1,4.577.915,6.364,6.364,0,0,1,1.664,4.577c.016,2.879,0,5.742,0,8.6h-3.478v-7.955a4.341,4.341,0,0,0-.816-2.779,2.3,2.3,0,0,0-2.679-.466,3,3,0,0,0-1.6,2.746c-.017,2.813,0,5.625,0,8.454h-3.478v-8.288a3.626,3.626,0,0,0-.915-2.613,2.308,2.308,0,0,0-2.929-.033,3.363,3.363,0,0,0-1.248,2.646V765H838.1v-8.121c0-1.964.033-3.928-.1-5.891h3.062q.075,1.048.15,2.1A5.672,5.672,0,0,1,843.509,751.09Z" transform="translate(-706.377 -631.5)" fill="#2ba7df"/><path d="M315,752.4c1.464.017,2.929,0,4.393,0v14.046H315Z" transform="translate(-270.416 -632.927)" fill="#2ba7df"/><path d="M969,752.6h3.894c1.115,3.428,2.4,6.807,3.345,10.285.915-3.445,1.964-6.856,2.946-10.285h3.828c-1.282,3.462-2.546,6.94-3.828,10.4a33.5,33.5,0,0,1-2.929,6.258,8.134,8.134,0,0,1-5.359,3.728l-.8-3a6.421,6.421,0,0,0,4.161-3.545c.166-.4-.083-.8-.217-1.148C972.345,761.054,970.681,756.827,969,752.6Z" transform="translate(-815.575 -633.093)" fill="#2ba7df"/><path d="M391.517,878.1h2.613v7.389c.716-1.232,1.548-2.38,2.33-3.562,1.065-.016,2.13,0,3.2,0l-3.029,3.428c1.165,1.665,2.3,3.345,3.445,5.009h-3.262c-.666-1.148-1.348-2.3-2.014-3.445-.233.283-.449.549-.666.832v2.613c-.882-.017-1.747,0-2.629-.017C391.533,886.255,391.517,882.177,391.517,878.1Z" transform="translate(-334.184 -737.707)" fill="#2ba7df"/><g transform="translate(94.769 140.393)"><path d="M622.7,878.1h2.147c.033,4.077-.083,8.171.067,12.249H623c-.033-.433-.067-.882-.083-1.315a3.327,3.327,0,0,1-4.693.915,4.6,4.6,0,0,1-1.665-4.044,4.407,4.407,0,0,1,1.814-3.578,3.283,3.283,0,0,1,4.31.5C622.7,881.245,622.7,879.664,622.7,878.1Zm-2.5,5.425a2.308,2.308,0,0,0-1.4,1.881,3.392,3.392,0,0,0,.632,2.862,1.917,1.917,0,0,0,2.8-.083c.682-.815.449-1.947.466-2.912A1.9,1.9,0,0,0,620.2,883.525Z" transform="translate(-616.545 -878.1)" fill="#2ba7df"/></g><path d="M447.305,879a1.4,1.4,0,0,1,1.947,1.248,1.419,1.419,0,0,1-2.163,1.131A1.345,1.345,0,0,1,447.305,879Z" transform="translate(-380.004 -738.372)" fill="#2ba7df"/><path d="M299.332,887c.865-.2,1.714-.4,2.58-.6v2.413h1.881v1.947h-1.864v3.046a1.813,1.813,0,0,0,.316,1.248c.416.349,1,.183,1.5.166v2.014a4.429,4.429,0,0,1-3.3-.217,2.785,2.785,0,0,1-1.1-2.363c-.017-1.3,0-2.6-.017-3.895H298.2v-1.947h1.132Z" transform="translate(-256.411 -744.626)" fill="#2ba7df"/><g transform="translate(48.021 144.018)"><path d="M336.221,900.62a7.119,7.119,0,0,1,4.826-.533,3.039,3.039,0,0,1,2.147,2.812c.083,1.864-.067,3.744.15,5.625H340.98c-.05-.283-.1-.566-.133-.849a3.25,3.25,0,0,1-4.31.416,2.768,2.768,0,0,1,.067-4.127,6.3,6.3,0,0,1,4.011-1.065,1.089,1.089,0,0,0-.632-1.048,4.21,4.21,0,0,0-3.245.482C336.554,901.751,336.387,901.185,336.221,900.62Zm2.014,5.109c-.183,1.015,1.148,1.432,1.831.882.732-.432.616-1.348.616-2.063C339.782,904.547,338.417,904.614,338.234,905.729Z" transform="translate(-335.646 -899.885)" fill="#2ba7df"/></g><g transform="translate(70.421 144.049)"><path d="M470.871,900.772a6.374,6.374,0,0,1,4.593-.466,2.943,2.943,0,0,1,1.9,2.729c.083,1.864-.083,3.761.133,5.625h-1.93c-.05-.316-.083-.616-.133-.932a3.224,3.224,0,0,1-4.294.549,2.675,2.675,0,0,1,.067-4.044,6.663,6.663,0,0,1,4.061-1.065,1.42,1.42,0,0,0-.732-1.365,4.03,4.03,0,0,0-3.262.416C471.12,901.737,470.971,901.254,470.871,900.772Zm2.03,4.31a1.284,1.284,0,0,0,.017,2.1,1.713,1.713,0,0,0,2.13-.616c.4-.583.216-1.331.266-2A4.291,4.291,0,0,0,472.9,905.082Z" transform="translate(-470.246 -900.067)" fill="#2ba7df"/></g><path d="M523.172,900.869a5.549,5.549,0,0,1,4.859-.383c-.133.533-.266,1.065-.383,1.6a3.418,3.418,0,0,0-3.012.067,2.931,2.931,0,0,0-.167,4.543,3.446,3.446,0,0,0,3.245.167c.1.532.2,1.048.3,1.581-1.781.633-4.011.666-5.475-.682A4.627,4.627,0,0,1,523.172,900.869Z" transform="translate(-442.374 -756.049)" fill="#2ba7df"/><g transform="translate(86.269 144.063)"><path d="M566.075,900.893a6.428,6.428,0,0,1,3.645-.716,3.084,3.084,0,0,1,2.114.982,3.664,3.664,0,0,1,.765,2.147c.033,1.814-.067,3.628.133,5.426H570.8c-.05-.316-.083-.616-.133-.932a3.252,3.252,0,0,1-4.244.582,2.688,2.688,0,0,1,.067-4.16,6.857,6.857,0,0,1,4.01-1.015,1.5,1.5,0,0,0-.832-1.415,4.109,4.109,0,0,0-3.179.45C566.358,901.809,566.225,901.343,566.075,900.893Zm2.047,4.277a1.261,1.261,0,0,0,.116,2.114,1.708,1.708,0,0,0,2.23-1.048,8.762,8.762,0,0,0,.067-1.614A4.143,4.143,0,0,0,568.122,905.17Z" transform="translate(-565.471 -900.153)" fill="#2ba7df"/></g><g transform="translate(104.467 144.036)"><path d="M675.749,901.56a3.955,3.955,0,0,1,5.392-.865,4.668,4.668,0,0,1,1.365,4.31h-5.642a2.084,2.084,0,0,0,1.315,1.914,5.542,5.542,0,0,0,3.595-.133c.1.5.2.982.316,1.481a7.982,7.982,0,0,1-3.994.433,3.751,3.751,0,0,1-2.962-2.347A5.28,5.28,0,0,1,675.749,901.56Zm1.781.466a2.871,2.871,0,0,0-.666,1.481h3.695a2.628,2.628,0,0,0-.466-1.448A1.742,1.742,0,0,0,677.53,902.026Z" transform="translate(-674.82 -899.994)" fill="#2ba7df"/></g><path d="M731.13,901.493a2.989,2.989,0,0,1,3.678-1.231,2.6,2.6,0,0,1,1.282,1.315,3.278,3.278,0,0,1,2.38-1.515,2.621,2.621,0,0,1,2.313.832,4.347,4.347,0,0,1,.849,2.962v4.776h-2.08c0-1.647.017-3.3,0-4.926-.017-.732-.266-1.648-1.065-1.864a1.6,1.6,0,0,0-1.964,1.5c-.05,1.764,0,3.528-.033,5.292h-2.08V903.69a1.887,1.887,0,0,0-.815-1.748,1.468,1.468,0,0,0-1.831.516,2.247,2.247,0,0,0-.416,1.414v4.793h-2.08c-.034-2.8.066-5.608-.067-8.4h1.831C731.081,900.645,731.1,901.077,731.13,901.493Z" transform="translate(-615.683 -755.991)" fill="#2ba7df"/><path d="M55.925,901.5h1.281c.7,2.313,1.481,4.593,2.064,6.94.433-2.363,1.215-4.627,1.831-6.94h1.531q-1.348,4.169-2.679,8.354H58.538c-.682-2.214-1.481-4.394-2.014-6.657-.566,2.263-1.381,4.443-2.114,6.657h-1.4c-.832-2.8-1.681-5.575-2.513-8.354h1.581c.582,2.313,1.248,4.61,1.747,6.956C54.378,906.077,55.21,903.813,55.925,901.5Z" transform="translate(-49.934 -757.213)" fill="#2ba7df"/><path d="M126,901.4h1.581c.566,2.313,1.248,4.593,1.731,6.923.616-2.33,1.415-4.61,2.13-6.923h1.3c.682,2.313,1.5,4.593,2.047,6.956.449-2.364,1.232-4.643,1.847-6.956h1.531q-1.348,4.169-2.7,8.371h-1.415c-.682-2.23-1.5-4.427-2.014-6.69-.533,2.28-1.381,4.477-2.114,6.69h-1.4Q127.256,905.6,126,901.4Z" transform="translate(-112.869 -757.13)" fill="#2ba7df"/><path d="M206.842,901.4h1.281c.7,2.313,1.481,4.593,2.064,6.94.433-2.363,1.215-4.627,1.831-6.94h1.531c-.9,2.8-1.8,5.575-2.7,8.371h-1.4c-.7-2.247-1.514-4.46-2.03-6.74a68.66,68.66,0,0,1-2.1,6.74h-1.415c-.832-2.8-1.681-5.575-2.513-8.354h1.581c.566,2.313,1.265,4.61,1.731,6.956C205.311,906.01,206.126,903.713,206.842,901.4Z" transform="translate(-175.721 -757.13)" fill="#2ba7df"/><path d="M446.879,901h2.63c-.017,2.813,0,5.625,0,8.438H446.9C446.863,906.625,446.879,903.813,446.879,901Z" transform="translate(-380.344 -756.796)" fill="#2ba7df"/><path d="M807.8,901.2h2.347c.666,2.047,1.431,4.061,2,6.157.566-2.047,1.182-4.094,1.764-6.141h2.3c-1.115,2.9-2.047,5.875-3.328,8.688a5.649,5.649,0,0,1-3.944,3.561c-.166-.6-.333-1.215-.482-1.814a3.725,3.725,0,0,0,2.53-2.3C810,906.609,808.849,903.913,807.8,901.2Z" transform="translate(-681.203 -756.963)" fill="#2ba7df"/><path d="M880.008,901.608a5.112,5.112,0,0,1,5.226-.682l-.349,1.2a3.719,3.719,0,0,0-3.328.017,3.361,3.361,0,0,0,.067,5.492,3.85,3.85,0,0,0,3.312-.05c.083.383.166.782.266,1.165a5.216,5.216,0,0,1-5.126-.416A4.669,4.669,0,0,1,880.008,901.608Z" transform="translate(-740.23 -756.389)" fill="#2ba7df"/><g transform="translate(145.68 144.111)"><path d="M925.28,900.637a4.327,4.327,0,0,1,3.961.7,4.213,4.213,0,0,1,1.4,3.179,4.641,4.641,0,0,1-1.082,3.362,4.183,4.183,0,0,1-6.058,0,4.925,4.925,0,0,1-.832-4.51A3.92,3.92,0,0,1,925.28,900.637Zm.683,1.032a2.64,2.64,0,0,0-1.814,2.1,3.744,3.744,0,0,0,1.048,3.778,2.245,2.245,0,0,0,2.979-.217,4,4,0,0,0,.316-4.726A2.283,2.283,0,0,0,925.963,901.668Z" transform="translate(-922.462 -900.444)" fill="#2ba7df"/></g><path d="M980.9,900.436h1.315c.033.466.05.915.067,1.381a2.986,2.986,0,0,1,3.462-1.448,2.658,2.658,0,0,1,1.581,1.531,3.081,3.081,0,0,1,2.58-1.647,2.535,2.535,0,0,1,2.113.832,4.109,4.109,0,0,1,.849,2.763v4.943h-1.5v-4.943a2.672,2.672,0,0,0-.782-2.03,1.759,1.759,0,0,0-2.2.15,2.182,2.182,0,0,0-.716,1.7v5.126h-1.5c0-1.764.017-3.512-.017-5.276a1.9,1.9,0,0,0-1.4-1.98,2.1,2.1,0,0,0-2.3,2.13c-.017,1.7-.017,3.412,0,5.109-.5.016-1,.016-1.5.016C980.933,906.028,981.017,903.232,980.9,900.436Z" transform="translate(-825.495 -756.166)" fill="#2ba7df"/><path d="M280.031,936.4a1.358,1.358,0,1,1,.033,2.58A1.4,1.4,0,0,1,280.031,936.4Z" transform="translate(-240.572 -786.224)" fill="#2ba7df"/><path d="M858.152,936.553a1.365,1.365,0,1,1,.283,2.513A1.426,1.426,0,0,1,858.152,936.553Z" transform="translate(-722.651 -786.275)" fill="#2ba7df"/></g></svg>